HIERARCHY
ROOT Hips
{
	OFFSET -0.001795 -0.223333 0.028219
	CHANNELS 6 Xposition Yposition Zposition Zrotation Yrotation Xrotation 
	JOINT LeftUpLeg
	{
		OFFSET 0.069520 -0.091406 -0.006815
		CHANNELS 3 Zrotation Yrotation Xrotation
		JOINT LeftLeg
		{
			OFFSET 0.034277 -0.375199 -0.004496
			CHANNELS 3 Zrotation Yrotation Xrotation
			JOINT LeftFoot
			{
				OFFSET -0.013596 -0.397961 -0.043693
				CHANNELS 3 Zrotation Yrotation Xrotation
				JOINT LeftToe
				{
					OFFSET 0.026358 -0.055791 0.119288
					CHANNELS 3 Zrotation Yrotation Xrotation
					End Site
					{
						OFFSET 0.000000 0.000000 0.000000
					}
				}
			}
		}
	}
	JOINT RightUpLeg
	{
		OFFSET -0.067670 -0.090522 -0.004320
		CHANNELS 3 Zrotation Yrotation Xrotation
		JOINT RightLeg
		{
			OFFSET -0.038290 -0.382569 -0.008850
			CHANNELS 3 Zrotation Yrotation Xrotation
			JOINT RightFoot
			{
				OFFSET 0.015774 -0.398415 -0.042312
				CHANNELS 3 Zrotation Yrotation Xrotation
				JOINT RightToe
				{
					OFFSET -0.025372 -0.048144 0.123348
					CHANNELS 3 Zrotation Yrotation Xrotation
					End Site
					{
						OFFSET 0.000000 0.000000 0.000000
					}
				}
			}
		}
	}
	JOINT Spine
	{
		OFFSET -0.002533 0.108963 -0.026696
		CHANNELS 3 Zrotation Yrotation Xrotation
		JOINT Spine1
		{
			OFFSET 0.005487 0.135180 0.001092
			CHANNELS 3 Zrotation Yrotation Xrotation
			JOINT Spine2
			{
				OFFSET 0.001457 0.052922 0.025425
				CHANNELS 3 Zrotation Yrotation Xrotation
				JOINT Neck
				{
					OFFSET -0.002778 0.213870 -0.042857
					CHANNELS 3 Zrotation Yrotation Xrotation
					JOINT Head
					{
						OFFSET 0.005152 0.064970 0.051349
						CHANNELS 3 Zrotation Yrotation Xrotation
						End Site
						{
							OFFSET 0.000000 0.000000 0.000000
						}
					}
				}
				JOINT LeftShoulder
				{
					OFFSET 0.078845 0.121749 -0.034090
					CHANNELS 3 Zrotation Yrotation Xrotation
					JOINT LeftArm
					{
						OFFSET 0.090977 0.030469 -0.008868
						CHANNELS 3 Zrotation Yrotation Xrotation
						JOINT LeftForeArm
						{
							OFFSET 0.259612 -0.012772 -0.027456
							CHANNELS 3 Zrotation Yrotation Xrotation
							JOINT LeftHand
							{
								OFFSET 0.249234 0.008986 -0.001171
								CHANNELS 3 Zrotation Yrotation Xrotation
								End Site
								{
									OFFSET 0.000000 0.000000 0.000000
								}
							}
						}
					}
				}
				JOINT RightShoulder
				{
					OFFSET -0.081759 0.118833 -0.038615
					CHANNELS 3 Zrotation Yrotation Xrotation
					JOINT RightArm
					{
						OFFSET -0.096012 0.032551 -0.009143
						CHANNELS 3 Zrotation Yrotation Xrotation
						JOINT RightForeArm
						{
							OFFSET -0.253742 -0.013329 -0.021401
							CHANNELS 3 Zrotation Yrotation Xrotation
							JOINT RightHand
							{
								OFFSET -0.255298 0.007772 -0.005559
								CHANNELS 3 Zrotation Yrotation Xrotation
								End Site
								{
									OFFSET 0.000000 0.000000 0.000000
								}
							}
						}
					}
				}
			}
		}
	}
}
MOTION
Frames: 17
Frame Time: 0.050000
0.187660 0.855990 -0.299879 0.885061 5.032584 2.044035 -9.065033 -1.174417 -7.888779 2.436869 -4.640392 49.029469 1.370282 -8.593806 -17.256402 0.000000 0.000000 0.000000 6.368600 2.914274 -20.448101 -3.820849 2.682483 39.125308 -4.416158 -0.327629 -25.761422 0.000000 0.000000 0.000000 0.189582 -0.003707 0.014555 2.361745 -0.914961 -3.279278 -0.348558 -5.910304 7.454243 -0.360044 0.497128 -5.321833 0.000000 0.000000 0.000000 -9.229700 0.019704 -0.484562 -64.947379 -2.869881 -6.221237 -11.403061 -32.760729 5.006683 0.000000 0.000000 0.000000 8.222525 -3.777687 -2.573004 59.646823 -4.153532 -8.346887 16.788404 30.176334 5.081198 0.000000 0.000000 0.000000 
0.190772 0.851685 -0.335713 0.778704 6.413566 1.688720 -8.939387 -1.040814 -7.163650 2.184801 -4.646539 47.557546 1.727110 -9.719459 -19.159480 0.000000 0.000000 0.000000 5.847985 3.076700 -22.549973 -2.931908 2.036848 39.395836 -3.659407 1.533816 -23.907704 0.000000 0.000000 0.000000 -0.053919 -0.011590 0.302843 2.923611 -1.183991 -2.898059 -0.401439 -6.567463 7.362840 -0.397557 0.496987 -4.699668 0.000000 0.000000 0.000000 -9.541178 -1.421426 0.123753 -64.811778 -4.105261 -5.563312 -11.047166 -33.600291 5.031080 0.000000 0.000000 0.000000 9.094506 -3.391243 -2.536826 58.254575 -4.088016 -8.055788 16.013961 29.257017 4.724907 0.000000 0.000000 0.000000 
0.193938 0.847515 -0.371510 0.884257 7.199209 1.014404 -8.738359 -0.898381 -6.339234 2.034955 -4.441989 45.380798 2.833257 -10.557869 -23.172536 0.000000 0.000000 0.000000 5.364720 3.209218 -24.497085 -3.248736 2.104566 40.518298 -3.185311 3.478146 -23.518453 0.000000 0.000000 0.000000 -0.440927 -0.048278 1.441591 2.874698 -1.114124 -3.474341 -0.276292 -6.910175 7.715162 -0.074277 0.212254 -4.063731 0.000000 0.000000 0.000000 -9.463004 -2.734365 0.703093 -64.231025 -6.623096 -4.179555 -11.663226 -33.564605 5.208716 0.000000 0.000000 0.000000 10.033755 -3.554696 -2.740409 57.569966 -5.140745 -8.470969 16.058656 28.780494 4.663788 0.000000 0.000000 0.000000 
0.197033 0.844692 -0.406156 0.745771 7.776869 0.486127 -9.069194 -0.734646 -5.269267 2.585896 -4.398660 42.046578 3.533866 -9.947679 -24.638944 0.000000 0.000000 0.000000 5.484667 3.627835 -28.066466 -4.278080 2.591510 41.980277 -2.741852 2.098556 -19.756388 0.000000 0.000000 0.000000 -0.821467 -0.073009 2.345271 2.892438 -1.132608 -3.284911 -0.175637 -7.748361 7.924995 -0.936516 0.843940 -3.851438 0.000000 0.000000 0.000000 -9.102508 -3.604622 1.159275 -64.845349 -7.977465 -3.414755 -11.722799 -35.971047 5.711456 0.000000 0.000000 0.000000 11.594979 -3.348010 -2.964987 56.304805 -5.584514 -8.477439 15.217248 28.993463 4.456361 0.000000 0.000000 0.000000 
0.200111 0.843969 -0.438613 0.726920 7.821701 0.390154 -9.103712 -0.610783 -4.546684 3.617708 -4.632489 40.000214 3.839474 -11.047063 -26.294452 0.000000 0.000000 0.000000 5.627807 4.109385 -32.043618 -5.914599 3.564677 43.880334 -2.184196 1.663338 -15.820094 0.000000 0.000000 0.000000 -1.252619 -0.081022 2.936061 2.797333 -1.066120 -3.589344 -0.088443 -7.676397 8.124456 -1.513112 1.315131 -4.432987 0.000000 0.000000 0.000000 -9.033688 -4.500948 1.544700 -63.338491 -9.174158 -2.745820 -13.731353 -37.166597 6.602267 0.000000 0.000000 0.000000 12.142016 -2.903807 -2.834333 55.528009 -7.180542 -9.067756 14.828766 28.705993 4.325214 0.000000 0.000000 0.000000 
0.202191 0.843982 -0.465917 0.377489 6.533548 -0.261731 -8.447173 -0.362361 -3.031479 3.328571 -4.143768 38.998891 3.317276 -11.536961 -25.427768 0.000000 0.000000 0.000000 7.796347 5.311611 -35.665611 -8.448525 5.458517 46.690141 -1.746570 1.953692 -13.219328 0.000000 0.000000 0.000000 -1.777810 -0.078636 3.328453 2.074117 -0.755538 -3.602271 1.203738 -7.018172 8.035727 -2.063986 1.756333 -5.590731 0.000000 0.000000 0.000000 -8.722962 -4.898810 1.753321 -64.599224 -10.234463 -2.132754 -13.451542 -36.862503 6.477991 0.000000 0.000000 0.000000 12.413489 -3.801601 -3.331422 54.642221 -8.654979 -9.569233 14.391708 28.180291 4.108714 0.000000 0.000000 0.000000 
0.202844 0.846831 -0.486145 -0.689179 6.812348 -0.448611 -6.933714 0.109114 -0.036302 4.077716 -4.139331 35.967923 2.883654 -12.409375 -24.510855 0.000000 0.000000 0.000000 8.349303 5.736963 -37.733960 -8.958794 5.837276 48.138577 -1.881756 -0.436902 -10.078952 0.000000 0.000000 0.000000 -1.516646 -0.050185 2.030394 3.554842 -1.438917 -3.336416 -0.671108 -7.708574 8.678287 -2.164564 1.876109 -8.117784 0.000000 0.000000 0.000000 -6.469206 -2.126120 0.614575 -67.323038 -11.163123 -1.473349 -14.441378 -37.719084 7.066096 0.000000 0.000000 0.000000 11.834872 -2.873212 -2.825875 56.031458 -9.589012 -10.334683 13.041825 26.094020 3.484638 0.000000 0.000000 0.000000 
0.201812 0.847079 -0.499366 -1.012621 9.506661 -2.328456 -6.291883 0.798301 5.340755 6.753071 -5.473874 34.679162 3.073837 -16.426185 -26.869826 0.000000 0.000000 0.000000 8.119690 5.160305 -35.939789 -8.476065 5.068556 50.398367 -2.585957 -2.676716 -10.912700 0.000000 0.000000 0.000000 -2.793958 -0.067665 3.049383 3.470856 -1.335132 -3.905007 1.171053 -9.311756 9.664919 -1.712159 1.494908 -7.879980 0.000000 0.000000 0.000000 -9.668249 -5.273337 2.007125 -63.880070 -11.082948 -1.833237 -15.015621 -39.536066 7.715554 0.000000 0.000000 0.000000 11.619424 -3.783159 -3.213656 56.709136 -10.505684 -11.109558 12.182446 26.671738 3.385180 0.000000 0.000000 0.000000 
0.199507 0.847290 -0.506898 -2.511932 9.955191 -2.393297 -4.004320 0.879944 7.423038 8.422537 -6.631410 36.337636 0.765506 -18.051511 -21.766008 0.000000 0.000000 0.000000 9.799992 5.302458 -33.622699 -7.334845 4.098016 48.697939 -2.081995 -0.654745 -11.893105 0.000000 0.000000 0.000000 -2.382328 -0.025080 0.716466 4.412974 -1.763818 -3.816300 0.328706 -8.483846 10.571297 -0.353138 0.572381 -7.592748 0.000000 0.000000 0.000000 -8.091829 -4.819277 1.664008 -65.653199 -11.359668 -1.841115 -16.128589 -36.707419 7.396091 0.000000 0.000000 0.000000 11.846430 -5.182931 -3.694694 56.513885 -11.293736 -11.442129 13.937800 25.897458 3.749970 0.000000 0.000000 0.000000 
0.196953 0.845642 -0.512775 -3.282991 11.499301 -3.339153 -2.061774 0.745319 8.006847 8.879793 -7.580016 38.539893 -1.229450 -16.671471 -15.537273 0.000000 0.000000 0.000000 10.226743 4.463041 -27.322868 -5.418111 2.440370 46.623757 -3.137333 -1.842215 -18.490270 0.000000 0.000000 0.000000 -3.691299 -0.037451 -0.181803 5.446039 -2.315576 -3.066337 0.948013 -9.603373 11.509236 0.218527 0.222142 -9.815678 0.000000 0.000000 0.000000 -8.547973 -4.117460 1.407739 -66.096344 -11.926834 -1.548596 -14.951169 -35.413652 6.772351 0.000000 0.000000 0.000000 11.341779 -7.250808 -4.572087 56.915051 -9.338250 -10.746789 15.734401 24.600809 3.894671 0.000000 0.000000 0.000000 
0.194866 0.846096 -0.523114 -4.090180 10.969812 -3.362480 -2.171647 0.398303 3.803702 7.408939 -9.227227 49.007920 -2.375818 -13.920137 -10.426717 0.000000 0.000000 0.000000 11.656573 4.434332 -24.865254 -4.919597 2.224518 47.912454 -3.957376 -3.493870 -22.062769 0.000000 0.000000 0.000000 -3.409914 -0.023972 -1.073049 5.106856 -2.056548 -4.010200 1.950395 -9.721475 12.821196 -0.358830 0.592275 -10.082830 0.000000 0.000000 0.000000 -8.448947 -2.348611 0.722130 -67.486472 -10.402012 -2.545279 -13.367156 -34.185055 6.123444 0.000000 0.000000 0.000000 10.452108 -6.910277 -4.276884 58.398399 -8.051499 -10.638389 14.592448 24.183767 3.597090 0.000000 0.000000 0.000000 
0.194529 0.848356 -0.541440 -5.230586 10.088551 -2.288857 -2.110915 -0.460099 -4.743304 3.357840 -9.778827 64.090780 -2.149199 -8.571631 -5.525390 0.000000 0.000000 0.000000 12.764087 4.598696 -24.489996 -5.327730 2.655940 47.386705 -4.181202 -2.467318 -25.006004 0.000000 0.000000 0.000000 -1.970536 0.048050 -2.859334 5.501903 -2.407923 -2.491423 1.676527 -7.806974 10.984258 -0.759053 1.093391 -11.265546 0.000000 0.000000 0.000000 -7.327515 -1.857914 0.383243 -69.864061 -10.002168 -2.748447 -11.785486 -31.300722 4.940548 0.000000 0.000000 0.000000 8.919840 -6.735647 -3.802324 59.653227 -6.948525 -10.089959 15.741925 23.488605 3.759427 0.000000 0.000000 0.000000 
0.195566 0.848593 -0.561555 -4.609052 9.467946 -2.007752 -1.788615 -1.551547 -13.966927 -0.766683 -8.234523 75.783225 -0.863656 -2.920572 -1.873189 0.000000 0.000000 0.000000 11.887928 3.742990 -20.335465 -5.955094 3.036398 44.292076 -4.408506 -3.586733 -25.552568 0.000000 0.000000 0.000000 -2.230029 0.027220 -1.817231 4.450540 -1.826199 -3.371097 1.935295 -7.186356 10.890946 -0.200477 0.743372 -11.499301 0.000000 0.000000 0.000000 -9.465275 -1.605375 0.158267 -68.496452 -8.197920 -3.927370 -11.657818 -30.125937 4.674131 0.000000 0.000000 0.000000 9.234373 -4.286770 -2.768985 60.640364 -3.469209 -8.508525 15.794605 23.823912 3.853355 0.000000 0.000000 0.000000 
0.197177 0.854943 -0.579574 -3.284684 8.569443 -1.859255 -1.962049 -2.654223 -21.862818 -2.902431 -6.016832 80.133044 0.287356 -1.408158 -3.929426 0.000000 0.000000 0.000000 9.920381 2.742517 -15.929253 -5.655228 2.912890 39.490628 -4.203909 -1.121689 -26.794554 0.000000 0.000000 0.000000 -2.758063 0.001511 -0.571805 2.083864 -0.783273 -2.997324 4.038776 -5.233658 8.276487 -1.028314 1.390549 -11.120646 0.000000 0.000000 0.000000 -11.097388 -0.899473 -0.404536 -66.434914 -5.306227 -5.440291 -13.775323 -28.078835 4.742944 0.000000 0.000000 0.000000 12.145973 -2.725630 -2.411682 58.658290 -2.171946 -7.282186 14.361034 26.343724 4.010603 0.000000 0.000000 0.000000 
0.199329 0.862788 -0.595518 -2.466111 7.566539 -2.249093 -2.172571 -3.264715 -25.864535 -3.860838 -3.841066 75.718279 2.200609 1.723229 -6.707971 0.000000 0.000000 0.000000 9.620147 2.064172 -11.991930 -6.719889 3.367669 35.164723 -3.341892 5.429026 -26.958319 0.000000 0.000000 0.000000 -3.807817 -0.016554 -0.133798 2.498623 -0.993624 -2.851744 3.569643 -3.648213 7.968718 -0.626733 1.136527 -9.856858 0.000000 0.000000 0.000000 -11.076655 0.422269 -1.146579 -66.382398 -2.073387 -7.359740 -14.764648 -28.117771 4.919964 0.000000 0.000000 0.000000 12.824501 -1.136783 -1.604136 59.731010 -0.649991 -6.600087 12.884150 29.294412 4.234357 0.000000 0.000000 0.000000 
0.201884 0.867734 -0.609404 -1.827468 5.965690 -1.363349 -3.217354 -3.687091 -27.651273 -1.585678 -4.007798 65.817764 3.473047 2.425277 -11.580458 0.000000 0.000000 0.000000 8.634298 1.411707 -8.739505 -7.851058 3.727224 30.583220 -3.028627 8.515716 -26.706559 0.000000 0.000000 0.000000 -4.251969 -0.001515 -1.147295 1.865577 -0.702914 -3.067394 4.371786 -2.313588 7.385472 -0.501092 1.030887 -9.199645 0.000000 0.000000 0.000000 -10.954707 1.700071 -1.749496 -65.290049 1.014240 -8.900367 -17.761174 -26.946270 5.399362 0.000000 0.000000 0.000000 11.125881 -0.691951 -1.215083 61.576619 0.087964 -6.331362 13.157919 31.360178 4.663306 0.000000 0.000000 0.000000 
0.205261 0.871270 -0.623031 -1.049094 6.390572 -1.942405 -6.211280 -4.031763 -25.445781 1.981875 -5.495682 55.273949 3.108344 -1.497827 -15.496588 0.000000 0.000000 0.000000 7.463350 0.622594 -4.212246 -8.109958 3.584259 28.062432 -2.984979 7.687571 -26.253685 0.000000 0.000000 0.000000 -4.892561 -0.021999 -0.853546 0.890789 -0.197430 -4.251621 4.617181 -2.311613 8.492838 0.488011 0.352335 -9.278383 0.000000 0.000000 0.000000 -9.520907 1.242726 -1.399426 -66.307720 2.480346 -10.036343 -16.026953 -26.057569 4.806986 0.000000 0.000000 0.000000 10.822711 -1.357016 -1.431096 63.321156 1.544233 -5.840180 12.729146 32.232203 4.762495 0.000000 0.000000 0.000000 
